# AST/ASF file generated using VICON BodyLanguage
# -----------------------------------------------
:version 1.10
:name VICON
:units
  mass 1.0
  length 0.45
  angle deg
:documentation
   .ast/.asf automatically generated from VICON data using
   VICON BodyBuilder and BodyLanguage model FoxedUp or BRILLIANT.MOD
:root
   order TX TY TZ RX RY RZ
   axis XYZ
   position 0 0 0  
   orientation 0 0 0 
:bonedata
  begin
     id 1 
     name lhipjoint
     direction 0.577973 -0.728611 0.367523 
     length 2.48544 
     axis 0 0 0  XYZ
  end
  begin
     id 2 
     name lfemur
     direction 0.34202 -0.939693 0  
     length 7.1921  
     axis 0 0 20  XYZ
    dof rx ry rz
    limits (-160.0 20.0)
           (-70.0 70.0)
           (-60.0 70.0)
  end
  begin
     id 3 
     name ltibia
     direction 0.34202 -0.939693 0   
     length 7.71059   
     axis 0 0 20   XYZ
    dof rx
    limits (-10.0 170.0)
  end
  begin
     id 4 
     name lfoot
     direction 0.089538 -0.246004 0.965124   
     length 2.19909   
     axis -90 7.62852e-016 20   XYZ
    dof rx rz
    limits (-45.0 90.0)
           (-70.0 20.0)
  end
  begin
     id 5 
     name ltoes
     direction 1.53544e-011 -4.21829e-011 1   
     length 1.10116   
     axis -90 7.62852e-016 20   XYZ
    dof rx
    limits (-90.0 20.0)
  end
  begin
     id 6 
     name rhipjoint
     direction -0.554414 -0.743062 0.374812   
     length 2.4371  
     axis 0 0 0  XYZ 
  end
  begin
     id 7 
     name rfemur
     direction -0.34202 -0.939693 0   
     length 7.47254   
     axis 0 0 -20   XYZ
    dof rx ry rz
    limits (-160.0 20.0)
           (-70.0 70.0)
           (-70.0 60.0)
  end
  begin
     id 8 
     name rtibia
     direction -0.34202 -0.939693 0   
     length 7.65855   
     axis 0 0 -20   XYZ
    dof rx
    limits (-10.0 170.0)
 end
 begin
     id 9 
     name rfoot
     direction -0.133779 -0.367555 0.92033   
     length 2.43006  
     axis -90 -7.62852e-016 -20   XYZ
    dof rx rz
    limits (-45.0 90.0)
           (-20.0 70.0)
  end
  begin
     id 10 
     name rtoes
     direction -1.53563e-011 -4.21889e-011 1   
     length 1.19625   
     axis -90 -7.62852e-016 -20   XYZ
    dof rx
    limits (-90.0 20.0)
  end
  begin
     id 11 
     name lowerback
     direction 0.0249066 0.998043 -0.0573585   
     length 2.08485   
     axis 0 0 0   XYZ
    dof rx ry rz
    limits (-20.0 45.0)
           (-30.0 30.0)
           (-30.0 30.0)
  end
  begin
     id 12 
     name upperback
     direction 0.0237884 0.999673 0.00943178   
     length 2.08515   
     axis 0 0 0   XYZ
    dof rx ry rz
    limits (-20.0 45.0)
           (-30.0 30.0)
           (-30.0 30.0)
  end
  begin
     id 13 
     name thorax
     direction 0.0106671 0.999301 0.0358174   
     length 2.09037   
     axis 0 0 0   XYZ
    dof rx ry rz
    limits (-20.0 45.0)
           (-30.0 30.0)
           (-30.0 30.0)
  end
  begin
     id 14 
     name lowerneck
     direction -0.0580016 0.987052 0.149546   
     length 1.84454   
     axis 0 0 0   XYZ
    dof rx ry rz
    limits (-20.0 45.0)
           (-30.0 30.0)
           (-30.0 30.0)
  end
  begin
     id 15 
     name upperneck
     direction 0.079456 0.981963 -0.171567   
     length 1.88141   
     axis 0 0 0   XYZ
    dof rx ry rz
    limits (-20.0 45.0)
           (-30.0 30.0)
           (-30.0 30.0)
  end
  begin
     id 16
     name head
     direction 0.0262167 0.9967 -0.0768276  
     length 1.89541  
     axis 0 0 0   XYZ
    dof rx ry rz
    limits (-20.0 45.0)
           (-30.0 30.0)
           (-30.0 30.0)
  end
  begin
     id 17 
     name lclavicle
     direction 0.946135 0.322134 -0.0325326  
     length 3.949  
     axis 0 0 0   XYZ
    dof ry rz
    limits (-20.0 10.0)
           (0.0 20.0)
  end
  begin
     id 18 
     name lhumerus
     direction 1 -4.48964e-011 1.94005e-028   
     length 5.10995   
     axis 180 -30 -90   XYZ
    dof rx ry rz
    limits (-60.0 90.0)
           (-90.0 90.0)
           (-90.0 90.0)
  end
  begin
     id 19
     name lradius
     direction 1 -4.48976e-011 2.87852e-027   
     length 3.21207   
     axis 180 -30 -90   XYZ
    dof rx
    limits (-10.0 170.0)
  end
  begin
     id 20
     name lwrist
     direction 1 -4.48963e-011 1.9975e-027   
     length 1.60604   
     axis 2.96054e-016 90 90   XYZ
    dof ry
    limits (-180.0 0.0)
 end
  begin
     id 21 
     name lhand
     direction 1 -4.48919e-011 4.00227e-027   
     length 0.63349   
     axis -2.5488e-015 90 90   XYZ
    dof rx rz
    limits (-90.0 90.0)
           (-45.0 45.0)
  end
  begin
     id 22 
     name lfingers
     direction 1 -4.49037e-011 7.9652e-027   
     length 0.510736   
     axis -5.0975e-015 90 90   XYZ
    dof rx
    limits (0.0 90.0)
  end
  begin
     id 23
     name lthumb
     direction 0.707107 -6.34922e-011 0.707107   
     length 0.733318   
     axis -90 45 -4.48553e-014   XYZ
    dof rx rz
    limits (-45.0 45.0)
           (-45.0 45.0)
  end
  begin
     id 24 
     name rclavicle
     direction -0.940085 0.328911 -0.0897654   
     length 3.93848  
     axis 0 0 0   XYZ 
    dof ry rz
    limits (-10.0 20.0)
           (-20.0 0.0)
  end
  begin
     id 25 
     name rhumerus
     direction -1 -4.48958e-011 3.02044e-027  
     length 5.25109   
     axis 180 30 90   XYZ
    dof rx ry rz
    limits (-90.0 60.0)
           (-90.0 90.0)
           (-90.0 90.0)
  end
  begin
     id 26 
     name rradius
     direction -1 -4.4897e-011 9.78352e-028   
     length 3.28364   
     axis 180 30 90   XYZ
    dof rx
    limits (-10.0 170.0)
  end
  begin
     id 27 
     name rwrist
     direction -1 -4.48943e-011 1.99918e-027   
     length 1.64182   
     axis 2.96054e-016 -90 -90   XYZ
    dof ry
    limits (-180.0 0.0)
  end
  begin
     id 28
     name rhand
     direction -1 -4.49024e-011 3.98478e-027   
     length 0.599745   
     axis -2.5488e-015 -90 -90   XYZ
    dof rx rz
    limits (-90.0 90.0)
           (-45.0 45.0)
  end
  begin
     id 29
     name rfingers
     direction -1 -4.48914e-011 8.00621e-027   
     length 0.48353   
     axis -5.0975e-015 -90 -90   XYZ
    dof rx
    limits (0.0 90.0)
  end
  begin
     id 30
     name rthumb
     direction -0.707107 -6.34992e-011 0.707107   
     length 0.694255   
     axis -90 -45 4.48553e-014   XYZ
    dof rx rz
    limits (-45.0 45.0)
           (-45.0 45.0)
  end
:hierarchy
  begin
    root lhipjoint rhipjoint lowerback
    lhipjoint lfemur
    lfemur ltibia
    ltibia lfoot
    lfoot ltoes
    rhipjoint rfemur
    rfemur rtibia
    rtibia rfoot
    rfoot rtoes
    lowerback upperback
    upperback thorax
    thorax lowerneck lclavicle rclavicle
    lowerneck upperneck
    upperneck head
    lclavicle lhumerus
    lhumerus lradius
    lradius lwrist
    lwrist lhand lthumb
    lhand lfingers
    rclavicle rhumerus
    rhumerus rradius
    rradius rwrist
    rwrist rhand rthumb
    rhand rfingers
  end

#!OML:ASF E:\CV Data\Top Level 1\Subject 1\Session 1\player.ASF
:FULLY-SPECIFIED
:DEGREES
990
root 6.02899 17.012 -8.03696 54.293 -81.8023 -65.5476
lowerback 19.3126 -0.15155 6.54025
upperback 7.26122 0.610635 3.30214
thorax -2.89532 0.119367 -0.311747
lowerneck -19.2226 14.3064 -4.88105
upperneck 14.9148 20.2379 2.70892
head 6.86727 9.6796 3.74714
rclavicle 3.77691e-015 -3.10104e-014
rhumerus 133.857 238.121 140.066
rradius 14.4446
rwrist 11.4308
rhand -32.855 14.345
rfingers 7.12502
rthumb -6.07422 -15.5479
lclavicle 3.77691e-015 -3.10104e-014
lhumerus 11.0589 -23.4156 18.4085
lradius 20.6527
lwrist -20.8313
lhand -5.58091 11.0869
lfingers 7.12502
lthumb 20.2352 40.0529
rfemur -2.2423 0.441962 27.324
rtibia 37.6464
rfoot -21.118 -6.37171
rtoes -2.46914
lfemur -66.4048 16.9514 -8.43106
ltibia 24.5489
lfoot -8.35207 12.3086
ltoes -18.1842
991
root 6.01475 17.0661 -7.98123 50.1741 -81.4091 -60.7502
lowerback 19.4039 -0.197675 6.42338
upperback 7.24911 0.542994 3.3098
thorax -2.96198 0.0844347 -0.223437
lowerneck -19.2873 14.2163 -4.96828
upperneck 14.4611 20.1488 2.55036
head 6.74265 9.63609 3.68014
rclavicle 5.66536e-015 -1.59028e-014
rhumerus 131.213 238.034 143.568
rradius 14.9866
rwrist 9.74574
rhand -32.8688 13.9493
rfingers 7.12502
rthumb -6.08754 -15.9433
lclavicle 5.66536e-015 -1.59028e-014
lhumerus 9.76194 -23.8216 17.2115
lradius 20.6853
lwrist -20.8547
lhand -5.49577 11.1389
lfingers 7.12502
lthumb 20.317 40.0962
rfemur -2.49107 0.135058 27.1123
rtibia 36.9369
rfoot -20.6515 -6.83841
rtoes -2.53272
lfemur -66.6836 17.0251 -8.78121
ltibia 24.7574
lfoot -8.31307 12.1113
ltoes -18.3466
992
root 6.00056 17.1196 -7.92354 46.6305 -80.9555 -56.5251
lowerback 19.4859 -0.238126 6.31529
upperback 7.23532 0.48399 3.33635
thorax -3.02488 0.0536731 -0.121543
lowerneck -19.3323 14.1346 -5.04777
upperneck 14.0113 20.0706 2.37445
head 6.6186 9.59664 3.60723
rclavicle -1.44119e-014 4.37326e-015
rhumerus 128.882 237.75 146.763
rradius 15.5773
rwrist 7.91395
rhand -32.8577 13.5453
rfingers 7.12502
rthumb -6.07683 -16.3475
lclavicle -1.44119e-014 4.37326e-015
lhumerus 8.4451 -24.2491 16.1252
lradius 20.7343
lwrist -20.6631
lhand -5.42879 11.2702
lfingers 7.12502
lthumb 20.3814 40.2207
rfemur -2.76341 -0.189484 26.9286
rtibia 36.2653
rfoot -20.1677 -7.31588
rtoes -2.60575
lfemur -66.9055 17.0801 -9.04249
ltibia 24.9614
lfoot -8.28993 11.929
ltoes -18.5107
993
root 5.98639 17.1727 -7.86421 43.6217 -80.4605 -52.8354
lowerback 19.5635 -0.2753 6.21412
upperback 7.21823 0.43061 3.37216
thorax -3.08843 0.0256864 -0.0146411
lowerneck -19.3639 14.062 -5.11717
upperneck 13.5762 20.0025 2.19244
head 6.49861 9.56154 3.53247
rclavicle -1.18277e-014 -1.86858e-014
rhumerus 126.817 237.337 149.699
rradius 16.1922
rwrist 6.03304
rhand -32.8353 13.1219
rfingers 7.12502
rthumb -6.05524 -16.7716
lclavicle -1.18277e-014 -1.86858e-014
lhumerus 7.11004 -24.7344 15.117
lradius 20.8026
lwrist -20.2667
lhand -5.37206 11.4714
lfingers 7.12502
lthumb 20.4359 40.416
rfemur -3.05502 -0.501501 26.7636
rtibia 35.6305
rfoot -19.6617 -7.78698
rtoes -2.71741
lfemur -67.0703 17.1228 -9.22648
ltibia 25.1652
lfoot -8.28277 11.7769
ltoes -18.7018
994
root 5.97237 17.2254 -7.80316 41.126 -79.9299 -49.6595
lowerback 19.64 -0.311726 6.12948
upperback 7.19582 0.381729 3.41409
thorax -3.15631 -7.01961e-006 0.0887381
lowerneck -19.3863 13.9984 -5.16746
upperneck 13.1637 19.942 2.00698
head 6.38661 9.52995 3.45623
rclavicle -1.46107e-014 -8.34896e-015
rhumerus 125.003 236.828 152.395
rradius 16.8127
rwrist 4.14148
rhand -32.8131 12.6598
rfingers 7.12502
rthumb -6.03377 -17.2343
lclavicle -1.46107e-014 -8.34896e-015
lhumerus 5.76063 -25.2428 14.1882
lradius 20.8745
lwrist -19.7765
lhand -5.29557 11.7084
lfingers 7.12502
lthumb 20.5094 40.6451
rfemur -3.36936 -0.774613 26.619
rtibia 35.0369
rfoot -19.1298 -8.23689
rtoes -2.93496
lfemur -67.179 17.1519 -9.32398
ltibia 25.3618
lfoot -8.29334 11.6733
ltoes -18.8865
995
root 5.958 17.2786 -7.73991 38.9704 -79.3967 -46.8363
lowerback 19.7093 -0.343435 6.03067
upperback 7.17752 0.335259 3.45799
thorax -3.21602 -0.0244432 0.201803
lowerneck -19.4034 13.938 -5.22039
upperneck 12.7717 19.8863 1.82269
head 6.27994 9.50005 3.38223
rclavicle 1.98785e-015 -3.65764e-014
rhumerus 123.421 236.26 154.891
rradius 17.425
rwrist 2.27463
rhand -32.7989 12.165
rfingers 7.12502
rthumb -6.02009 -17.7295
lclavicle 1.98785e-015 -3.65764e-014
lhumerus 4.39219 -25.7724 13.3419
lradius 20.9442
lwrist -19.2883
lhand -5.19633 11.9496
lfingers 7.12502
lthumb 20.6048 40.876
rfemur -3.68114 -1.00147 26.4479
rtibia 34.4784
rfoot -18.5792 -8.62704
rtoes -3.26907
lfemur -67.2246 17.1887 -9.38988
ltibia 25.5589
lfoot -8.34207 11.6048
ltoes -19.0202
996
root 5.94365 17.3314 -7.67515 37.092 -78.8448 -44.2888
lowerback 19.7667 -0.376069 5.91844
upperback 7.15762 0.284551 3.5075
thorax -3.27143 -0.0508984 0.329437
lowerneck -19.42 13.8805 -5.26206
upperneck 12.4009 19.8325 1.63416
head 6.18166 9.47037 3.3075
rclavicle 9.64106e-015 2.8625e-014
rhumerus 122.055 235.653 157.205
rradius 18.0197
rwrist 0.444019
rhand -32.7971 11.6524
rfingers 7.12502
rthumb -6.01831 -18.2421
lclavicle 9.64106e-015 2.8625e-014
lhumerus 3.00587 -26.3163 12.5694
lradius 21.0032
lwrist -18.8919
lhand -5.06621 12.1577
lfingers 7.12502
lthumb 20.7298 41.0705
rfemur -4.00913 -1.18221 26.2635
rtibia 33.9544
rfoot -18.0031 -8.9689
rtoes -3.76656
lfemur -67.2548 17.2555 -9.48038
ltibia 25.7546
lfoot -8.40897 11.53
ltoes -19.148
997
root 5.92871 17.3845 -7.60777 35.3979 -78.2959 -41.9346
lowerback 19.8053 -0.404564 5.78928
upperback 7.14577 0.233648 3.55555
thorax -3.30847 -0.0770799 0.465035
lowerneck -19.4393 13.8185 -5.3131
upperneck 12.0414 19.7737 1.45468
head 6.08579 9.43849 3.23724
rclavicle -9.93923e-015 -4.49253e-014
rhumerus 120.868 235.034 159.381
rradius 18.6015
rwrist -1.34449
rhand -32.8032 11.1461
rfingers 7.12502
rthumb -6.02426 -18.7482
lclavicle -9.93923e-015 -4.49253e-014
lhumerus 1.61522 -26.8683 11.876
lradius 21.0417
lwrist -18.6389
lhand -4.9423 12.3343
lfingers 7.12502
lthumb 20.8489 41.2341
rfemur -4.33729 -1.32548 26.0331
rtibia 33.4651
rfoot -17.4135 -9.23929
rtoes -4.37133
lfemur -67.2341 17.3207 -9.56764
ltibia 25.945
lfoot -8.49762 11.5176
ltoes -19.2508
998
root 5.91331 17.4367 -7.53898 33.8918 -77.7247 -39.7745
lowerback 19.837 -0.438462 5.64942
upperback 7.13596 0.173022 3.60724
thorax -3.33977 -0.108014 0.612758
lowerneck -19.4582 13.7576 -5.35581
upperneck 11.6881 19.7134 1.27729
head 5.99254 9.40642 3.16711
rclavicle 2.28602e-015 5.08889e-014
rhumerus 119.852 234.405 161.41
rradius 19.179
rwrist -3.10935
rhand -32.8175 10.6687
rfingers 7.12502
rthumb -6.03802 -19.2252
lclavicle 2.28602e-015 5.08889e-014
lhumerus 0.203621 -27.4076 11.2617
lradius 21.0549
lwrist -18.564
lhand -4.83616 12.4695
lfingers 7.12502
lthumb 20.9508 41.358
rfemur -4.67237 -1.44651 25.7914
rtibia 33.012
rfoot -16.8136 -9.46971
rtoes -5.05989
lfemur -67.2033 17.4245 -9.70895
ltibia 26.1261
lfoot -8.58505 11.4906
ltoes -19.37
999
root 5.89821 17.4874 -7.4685 32.549 -77.1141 -37.7722
lowerback 19.8613 -0.484223 5.51316
upperback 7.11988 0.0981385 3.66715
thorax -3.37384 -0.145898 0.770538
lowerneck -19.4721 13.6925 -5.41464
upperneck 11.3382 19.6479 1.11846
head 5.8963 9.37318 3.10383
rclavicle 6.85807e-015 -1.63003e-014
rhumerus 118.976 233.775 163.334
rradius 19.762
rwrist -4.83874
rhand -32.8184 10.2273
rfingers 7.12502
rthumb -6.03894 -19.6667
lclavicle 6.85807e-015 -1.63003e-014
lhumerus -1.23199 -27.8666 10.7525
lradius 21.0338
lwrist -18.7111
lhand -4.78838 12.5669
lfingers 7.12502
lthumb 20.9967 41.4503
rfemur -5.03386 -1.57541 25.5481
rtibia 32.5989
rfoot -16.2082 -9.67218
rtoes -5.79089
lfemur -67.1794 17.5425 -9.89291
ltibia 26.2903
lfoot -8.66039 11.4556
ltoes -19.4792
1000
root 5.88249 17.537 -7.39469 31.3773 -76.4804 -35.9477
lowerback 19.8746 -0.544621 5.40304
upperback 7.10054 0.00848404 3.72254
thorax -3.4052 -0.190495 0.912096
lowerneck -19.479 13.6337 -5.45459
upperneck 11.0019 19.5848 0.966577
head 5.80427 9.34221 3.041
rclavicle -4.07509e-015 -3.55825e-014
rhumerus 118.243 233.129 165.128
rradius 20.3589
rwrist -6.56824
rhand -32.8174 9.8534
rfingers 7.12502
rthumb -6.03795 -20.0406
lclavicle -4.07509e-015 -3.55825e-014
lhumerus -2.69963 -28.2149 10.3445
lradius 20.9836
lwrist -19.0606
lhand -4.80209 12.6262
lfingers 7.12502
lthumb 20.9836 41.5111
rfemur -5.40461 -1.73321 25.2926
rtibia 32.228
rfoot -15.6107 -9.83215
rtoes -6.51544
lfemur -67.117 17.6444 -10.0613
ltibia 26.4259
lfoot -8.71918 11.4727
ltoes -19.611
1001
root 5.86713 17.5847 -7.31883 30.3588 -75.8051 -34.2724
lowerback 19.8832 -0.62273 5.31271
upperback 7.07021 -0.0993316 3.78252
thorax -3.44552 -0.243787 1.05168
lowerneck -19.4793 13.581 -5.48721
upperneck 10.6856 19.5269 0.824318
head 5.71713 9.31433 2.98136
rclavicle -2.29596e-014 6.83819e-014
rhumerus 117.618 232.486 166.839
rradius 20.9774
rwrist -8.28456
rhand -32.8022 9.55108
rfingers 7.12502
rthumb -6.02324 -20.3433
lclavicle -2.29596e-014 6.83819e-014
lhumerus -4.20386 -28.4256 10.0433
lradius 20.9132
lwrist -19.5729
lhand -4.85472 12.663
lfingers 7.12502
lthumb 20.933 41.5535
rfemur -5.80115 -1.93304 25.0482
rtibia 31.9005
rfoot -15.0188 -9.98391
rtoes -7.21266
lfemur -67.0559 17.7546 -10.2604
ltibia 26.5282
lfoot -8.74619 11.4746
ltoes -19.7701
1002
root 5.85233 17.6296 -7.24103 29.5482 -75.0812 -32.8033
lowerback 19.8994 -0.721081 5.26228
upperback 7.02248 -0.223252 3.8488
thorax -3.50785 -0.304825 1.17966
lowerneck -19.4676 13.5333 -5.50293
upperneck 10.3915 19.4701 0.692213
head 5.6357 9.28788 2.92328
rclavicle -3.0911e-014 3.57812e-015
rhumerus 117.074 231.853 168.491
rradius 21.6231
rwrist -9.98088
rhand -32.7767 9.31868
rfingers 7.12502
rthumb -5.99864 -20.5764
lclavicle -3.0911e-014 3.57812e-015
lhumerus -5.73802 -28.5675 9.82634
lradius 20.841
lwrist -20.128
lhand -4.93098 12.7187
lfingers 7.12502
lthumb 20.8597 41.6173
rfemur -6.22449 -2.16955 24.8425
rtibia 31.611
rfoot -14.4259 -10.1509
rtoes -7.89934
lfemur -66.9766 17.8242 -10.3927
ltibia 26.6007
lfoot -8.74664 11.5283
ltoes -19.8895
1003
root 5.83744 17.6724 -7.16104 28.9095 -74.3352 -31.5162
lowerback 19.918 -0.82562 5.2302
upperback 6.96731 -0.350476 3.92633
thorax -3.57868 -0.367523 1.31053
lowerneck -19.4472 13.4849 -5.5198
upperneck 10.1217 19.4122 0.567008
head 5.55998 9.26061 2.86816
rclavicle -3.05134e-014 2.26615e-014
rhumerus 116.63 231.223 170.071
rradius 22.297
rwrist -11.6792
rhand -32.7651 9.1858
rfingers 7.12502
rthumb -5.98746 -20.7096
lclavicle -3.05134e-014 2.26615e-014
lhumerus -7.29634 -28.6912 9.70451
lradius 20.7799
lwrist -20.638
lhand -5.01802 12.8205
lfingers 7.12502
lthumb 20.7761 41.7282
rfemur -6.65275 -2.43355 24.6597
rtibia 31.3542
rfoot -13.8442 -10.3257
rtoes -8.52509
lfemur -66.8567 17.8614 -10.4471
ltibia 26.6484
lfoot -8.73123 11.6452
ltoes -19.9433
1004
root 5.82266 17.7126 -7.0796 28.4431 -73.5704 -30.4105
lowerback 19.9444 -0.931652 5.20119
upperback 6.90298 -0.476873 4.02407
thorax -3.66262 -0.430206 1.4618
lowerneck -19.4196 13.4378 -5.52207
upperneck 9.87983 19.3549 0.430315
head 5.49469 9.23202 2.8094
rclavicle -1.04362e-014 -2.76311e-014
rhumerus 116.309 230.592 171.562
rradius 23.0013
rwrist -13.3923
rhand -32.7801 9.12865
rfingers 7.12502
rthumb -6.00194 -20.7663
lclavicle -1.04362e-014 -2.76311e-014
lhumerus -8.88531 -28.8615 9.67883
lradius 20.741
lwrist -21.0387
lhand -5.07838 12.9559
lfingers 7.12502
lthumb 20.7181 41.87
rfemur -7.08517 -2.7078 24.5126
rtibia 31.1224
rfoot -13.2674 -10.5311
rtoes -9.14008
lfemur -66.7142 17.8896 -10.4401
ltibia 26.6801
lfoot -8.69888 11.7943
ltoes -19.9603
